<svg width="1080" height="1080" viewBox="0 0 1080 1080" fill="none" xmlns="http://www.w3.org/2000/svg">
<path d="M337.747 444.239C272.995 511.934 249.449 639.231 245.77 694.418C259.26 726.301 295.07 803.312 330.389 856.291C433.404 959.306 481.232 992.418 558.493 985.06C620.302 979.173 674.998 921.289 694.62 893.082L716.695 804.784C775.56 819.5 827.068 786.388 849.142 760.635C946.271 654.677 958.289 559.51 952.157 525.172C939.894 492.063 902.121 404.505 849.142 319.149C782.919 212.455 650.471 249.246 635.754 249.246C621.038 249.246 418.687 359.62 337.747 444.239Z" fill="white"/>
<path d="M253.126 698.094C211.92 671.604 191.808 763.091 186.902 812.146C239.881 879.845 309.539 852.614 337.746 830.537C326.708 797.426 294.332 724.583 253.126 698.094Z" fill="white"/>
<path d="M956 349L891 374.5C900.833 400.333 923.5 449.8 935.5 441C947.5 432.2 954.167 376 956 349Z" fill="white"/>
<path d="M767.499 252.5L782.021 188.647L775.499 191.5L759.999 251L747.499 245L759.999 164.5L785.999 156.5L788.358 160.781L801.499 103L836.499 233L817.999 252.5V268.5L767.499 252.5Z" fill="white"/>
<path d="M744.499 185.5L732.784 181.453L744.499 205.5L733.499 242L635.499 251L538.999 298.5L418.999 374L337.999 441.5L281.499 533.5L197.239 486.527L219 538.5L223.499 612.5L132.999 508C131.166 469.833 129.399 393.5 136.999 393.5C144.599 393.5 160.5 408.167 167.5 415.5L195.556 482.509L279.999 283.5L293.999 307.5L430.499 153.5L464.999 179L571.499 169L629.499 110.5L655.499 118L667.499 174L692.999 159L706.499 127.5L722.287 159.907L728.499 141L744.499 185.5Z" fill="white"/>
<path d="M215.5 514L229.5 529.5V508L215.5 514Z" fill="white"/>
<path fill-rule="evenodd" clip-rule="evenodd" d="M383.428 510.48L403.511 489.495C403.511 489.495 413.79 482.848 421.575 488.042C429.36 493.236 432.886 500.083 432.886 500.083C432.886 500.083 442.803 499.212 442.803 502.1C442.803 504.987 441.493 511.194 445.498 513.31C449.502 515.426 449.11 524.27 442.803 532.14C436.496 540.009 425.567 555.801 425.567 555.801L415.766 567.329L419.646 572.606C419.646 572.606 422.87 573.483 417.968 579.913C413.065 586.342 405.819 590.506 400.095 587.538C394.37 584.57 369.517 559.444 369.517 559.444C369.517 559.444 359.322 542.138 360.721 537.139C362.12 532.14 352.788 528.386 358.244 525.522C363.7 522.658 383.428 510.48 383.428 510.48Z" fill="#00801D"/>
<path fill-rule="evenodd" clip-rule="evenodd" d="M621.916 443.928C621.916 443.928 628.509 499.899 636.672 504.393C644.835 508.886 665.967 521.236 671.445 507.466C676.924 493.695 691.001 462.915 687.348 462.915C683.696 462.915 681.018 448.062 681.018 443.928C681.018 439.793 662.105 410.109 642.011 413.741C621.916 417.372 619.082 423.795 619.082 430.384C619.082 436.972 621.916 443.928 621.916 443.928Z" fill="#00801D"/>
<path fill-rule="evenodd" clip-rule="evenodd" d="M512.58 538.011C512.58 538.011 524.099 532.618 526.746 532.618C529.392 532.618 529.01 526.062 533.533 526.062C538.057 526.062 552.059 538.011 552.059 538.011C552.059 538.011 553.944 548.424 556.318 550.713C558.692 553.002 561.477 559.005 561.477 559.005L570.857 557.093C570.857 557.093 582.925 569.867 582.925 574.342C582.925 578.818 573.061 588.505 573.061 588.505C573.061 588.505 566.493 595.167 558.476 595.167C550.46 595.167 535.092 597.223 533.533 602.207C531.975 607.192 521.169 613.423 514.318 613.423C507.466 613.423 496.143 597.222 498.82 595.167C501.496 593.113 506.183 584.311 506.183 581.038C506.183 577.766 509.689 553.848 509.689 553.848C509.689 553.848 507.075 546.413 507.583 543.629C508.092 540.845 512.58 538.011 512.58 538.011Z" fill="#00801D"/>
<path fill-rule="evenodd" clip-rule="evenodd" d="M395.625 681.89C385.466 682.603 381.833 668.738 391.037 664.378C400.47 659.911 409.833 655.638 419.127 651.559L414.863 650.118C404.984 646.781 407.383 632.182 417.81 632.182H447.273C447.576 629.743 447.894 627.286 448.228 624.812C448.908 619.771 453.545 616.235 458.586 616.915C463.627 617.595 467.163 622.232 466.483 627.273C466.261 628.918 466.046 630.555 465.838 632.182H466.623C528.759 608.804 587.628 594.595 643.234 589.586C657.774 581.932 671.734 575.972 685.119 571.708C687.472 570.958 690.027 571.185 692.211 572.337L723.055 588.604C726.742 590.548 728.663 594.727 727.739 598.792C717.228 645.038 700.435 686.391 677.386 722.808C679.174 727.537 676.989 733.587 671.055 735.099L668.849 735.661C661.333 746.45 653.231 756.775 644.543 766.637C627.106 849.546 598.352 888.61 556.133 880.166C505.974 870.135 472.557 840.154 455.675 790.914C455.144 790.733 454.614 790.55 454.085 790.366L433.907 795.506C425.118 797.745 418.726 787.269 424.737 780.477C425.217 779.934 425.697 779.392 426.177 778.852C421.813 776.747 417.533 774.527 413.335 772.194C409.989 770.333 408.142 766.596 408.697 762.808C412.99 733.519 424.412 709.684 442.808 691.271C442.891 687.096 443.032 682.854 443.231 678.545L395.625 681.89ZM428.002 759.174C431.608 761.048 435.281 762.835 439.02 764.536C441.681 761.598 444.329 758.693 446.967 755.82C445.101 744.679 443.852 732.826 443.216 720.263C435.903 731.578 430.842 744.551 428.002 759.174ZM642.996 664.509C643.616 664.465 644.202 664.375 644.755 664.242C645.528 658.571 646.196 652.861 646.764 647.14C653.783 650.686 653.084 662.243 644.755 664.246C644.428 666.64 644.083 669.028 643.719 671.407C642.667 669.082 641.517 666.847 640.267 664.701L642.996 664.509ZM615.443 629.899C625.118 622.576 634.828 615.907 644.443 609.876C631.899 616.897 618.857 625.244 605.319 634.918C605.859 635.143 606.395 635.372 606.926 635.605C609.724 633.715 612.563 631.812 615.443 629.899ZM544.354 626.335C564.756 620.836 584.738 616.452 604.302 613.181C597.298 617.947 590.176 623.058 582.934 628.512C571.455 626.455 558.584 625.727 544.354 626.335ZM461.057 699.66C461.017 713.514 461.674 726.48 463.025 738.566C481.584 718.931 499.56 700.948 516.957 684.619L497.436 678.024C483.173 683.685 471.056 690.899 461.057 699.66ZM630.798 726.341L532.484 751.384C542.148 733.603 553.592 716.938 566.581 701.365L631.782 723.39C631.458 724.384 631.13 725.367 630.798 726.341ZM533.328 714.759C513.464 732.496 499.114 748.36 490.2 762.157L508.724 757.438C515.824 742.502 524.064 728.28 533.328 714.759ZM473.558 754.238C471.196 758.025 469.164 761.71 467.462 765.292C467.186 764.079 466.919 762.856 466.661 761.621C468.97 759.134 471.268 756.673 473.558 754.238ZM691.496 605.234C691.277 605.326 690.784 605.541 690.032 605.88C688.738 606.463 687.216 607.174 685.482 608.014C680.481 610.437 674.82 613.395 668.626 616.901C668.158 617.166 667.689 617.433 667.22 617.701C667.18 618.953 667.13 620.314 667.067 621.78C666.79 628.248 666.331 635.445 665.649 643.191C663.696 665.349 660.335 687.522 655.209 708.304C654.938 709.403 654.662 710.494 654.383 711.578L661.234 713.893C682.327 680.816 697.965 643.387 708.17 601.567L697.08 595.718C697.518 599.442 695.818 603.417 691.496 605.234ZM510.328 803.948C528.674 806.65 547.997 807.999 568.293 807.999C569.168 807.999 570.038 807.984 570.901 807.952C565.725 811.61 560.415 815.164 554.972 818.613C535.942 819.978 519.473 819.017 506.759 815.905C506.985 815.421 507.173 814.911 507.316 814.377C508.259 810.866 509.264 807.39 510.328 803.948ZM492.057 800.728C488.124 799.924 484.239 799.052 480.403 798.113C481.924 802.415 485 806.01 489.685 809.032C490.439 806.243 491.23 803.475 492.057 800.728ZM646.777 647.133C645.725 646.601 644.499 646.25 643.099 646.137C637.306 645.673 631.617 645.292 626.041 644.988C633.146 640.268 640.512 635.471 648.141 630.6C647.913 634.102 647.634 637.768 647.298 641.574C647.135 643.428 646.961 645.281 646.777 647.133ZM516.446 786.211C518.137 781.787 519.93 777.423 521.823 773.119L622.133 747.568C608.853 774.634 591.006 789.578 568.288 789.578C550.139 789.578 532.859 788.455 516.446 786.211ZM499.559 778.784L489.511 781.343C492.287 781.974 495.092 782.568 497.924 783.126C498.459 781.672 499.004 780.225 499.559 778.784ZM562.607 644.478C562.113 644.882 561.617 645.287 561.121 645.694C540.762 647.451 522.376 650.778 505.987 655.68L491.799 656.677L473.847 650.612H498.407C499.003 650.612 499.598 650.554 500.183 650.439C524.4 645.681 545.167 643.687 562.607 644.478ZM633.086 704.398C631.64 688.521 626.823 675.81 618.493 666.241L598.924 667.616C592.3 673.678 585.936 679.943 579.849 686.414L633.086 704.398ZM619.297 792.48C604.377 844.497 584.1 866.974 559.754 862.105C537.034 857.562 518.208 848.229 503.307 834.011C518.582 837.607 537.402 838.509 558.686 836.797C560.159 836.679 561.581 836.208 562.833 835.424C583.436 822.534 602.259 808.217 619.297 792.48Z" fill="#00801D"/>
<path fill-rule="evenodd" clip-rule="evenodd" d="M705.382 893.653C707.231 888.999 708.074 885.218 708.269 882.469C712.036 860.93 716.359 839.454 721.24 818.039C765.591 828.544 807.3 813.691 846.035 777.279C880.014 745.339 911.156 697.663 941.558 635.217C967.264 582.415 968.084 528.444 948.084 469.578C939.744 445.029 927.877 419.734 912.024 391.651C899.875 370.128 887.969 351.062 865.435 316.284C820.11 246.334 741.369 220.928 631.336 239.512C630.46 239.66 629.607 239.918 628.796 240.28C550.338 275.325 472.046 321.461 393.917 378.675C360.449 403.184 334.69 427.707 314.868 453.459C297.021 476.645 283.946 500.795 273.703 528.237C265.577 550.007 259.937 570.957 251.836 606.72C251.19 609.572 249.402 617.522 248.363 622.145C247.977 623.86 247.694 625.117 247.611 625.486C245.91 633.03 244.558 638.934 243.196 644.737C226.589 715.483 262.328 796.692 348.829 888.516C433.98 977.852 506.117 1014.04 565.862 994.731C566.107 994.652 566.348 994.564 566.587 994.467C626.864 969.976 666.154 944.601 688.543 919.503C696.767 910.283 702.223 901.602 705.382 893.653ZM704.454 797.388C697.882 824.656 692.202 852.025 687.413 879.496C687.334 879.944 687.286 880.396 687.266 880.85C687.25 880.995 687.217 881.215 687.161 881.508C686.938 882.661 686.511 884.124 685.811 885.884C683.583 891.49 679.446 898.074 672.826 905.495C652.847 927.892 616.323 951.501 559.023 974.82C509.177 990.676 444.012 957.878 364.104 874.041C281.99 786.875 249.03 711.98 263.684 649.554C265.063 643.681 266.427 637.722 268.141 630.123C268.225 629.748 268.511 628.477 268.9 626.748C269.94 622.12 271.72 614.207 272.361 611.376C280.267 576.473 285.708 556.261 293.419 535.605C302.951 510.067 315.026 487.764 331.544 466.305C350.094 442.205 374.418 419.048 406.349 395.665C482.903 339.605 559.504 294.406 636.15 260.056C737.865 243.171 807.702 265.913 847.761 327.738C870.071 362.17 881.808 380.966 893.685 402.005C908.941 429.033 920.273 453.186 928.145 476.356C946.461 530.265 945.727 578.552 922.623 626.008C893.243 686.357 863.366 732.094 831.61 761.946C797.71 793.812 763 806.262 726.089 797.556C734.502 763.828 749.561 714.779 771.248 650.514C773.107 645.006 770.148 639.033 764.64 637.175C759.132 635.316 753.16 638.274 751.301 643.783C728.387 711.685 712.779 762.847 704.454 797.388Z" fill="#00801D"/>
<path d="M179.087 815.882C176.916 813.348 176.075 809.934 176.821 806.682C183.533 777.398 190.887 747.688 198.883 717.551C203.918 698.572 215.01 687.176 231.474 685.867C245.962 684.716 263.288 691.666 284.155 706.101C288.936 709.408 290.13 715.965 286.823 720.746C283.516 725.527 276.959 726.721 272.178 723.414C254.937 711.488 241.691 706.173 233.142 706.853C226.57 707.375 222.161 711.906 219.231 722.95C211.774 751.056 204.881 778.782 198.551 806.129C240.606 852.453 287.242 854.123 342.768 810.901C345.685 808.63 349.58 808.057 353.029 809.39L373.75 817.4C379.173 819.497 381.869 825.591 379.773 831.014C377.677 836.436 371.582 839.132 366.16 837.036L350.919 831.144C287.098 878.413 228.373 873.405 179.087 815.882Z" fill="#00801D"/>
<path d="M887.887 377.468L956.338 346.463C956.338 346.463 971.939 380.749 927.669 453.411" stroke="#00801D" stroke-width="17.1381" stroke-linecap="round" stroke-linejoin="round"/>
<path fill-rule="evenodd" clip-rule="evenodd" d="M179.442 695.864C185.033 694.27 188.273 688.447 186.68 682.856C171.259 628.748 159.523 581.972 151.434 542.698C173.179 569.91 190.115 590.959 202.246 605.851C209.912 615.262 215.67 622.227 219.542 626.771C221.548 629.125 223.071 630.858 224.165 632.024C224.891 632.799 225.482 633.385 226.094 633.906C226.987 634.665 227.782 635.227 229.112 635.784C231.559 636.81 234.234 637.162 237.514 635.708C241.986 633.725 243.796 629.801 243.796 626.037C243.796 588.564 225.219 518.901 200.994 460.799C188.946 431.902 176.767 409.086 165.921 395.966C158.972 387.561 152.222 382.508 144.699 381.646C134.785 380.51 127.369 386.771 123.145 397.385C107.357 437.063 122.062 532.936 166.434 688.626C168.028 694.217 173.852 697.457 179.442 695.864ZM218.566 592.55C203.353 573.874 180.51 545.423 150.048 507.207C148.501 505.266 146.407 504.018 144.162 503.506C136.342 455.222 135.893 422.279 142.704 405.162C142.989 404.444 143.273 403.829 143.548 403.315C143.685 403.411 143.828 403.514 143.977 403.625C145.603 404.842 147.543 406.773 149.693 409.374C158.914 420.528 170.248 441.76 181.561 468.894C198.766 510.16 213.06 557.716 219.329 593.485L218.566 592.55Z" fill="#00801D"/>
<path fill-rule="evenodd" clip-rule="evenodd" d="M274.927 408.585L291.148 535.259C292.248 543.847 283.087 550.016 275.543 545.768L245.749 528.991L243.708 545.457C242.616 554.266 231.78 557.851 225.65 551.431L196.629 521.044C193.68 517.956 192.888 513.392 194.625 509.492L239.429 408.884L240.355 401.41L195.015 507.977C192.739 513.326 186.558 515.817 181.209 513.541C175.859 511.266 173.368 505.084 175.644 499.735L271.022 275.559C275.249 265.623 289.909 267.734 291.163 278.457L292.482 289.748L319.212 229.725C324.141 218.656 340.794 223.311 339.27 235.331L337.851 246.522C376.773 185.615 415.787 141.336 454.997 113.657C464.426 107.001 476.147 118.181 469.943 127.914L422.521 202.313C426.19 203.868 428.96 207.457 428.96 212.015V339.556C428.96 345.369 424.248 350.082 418.434 350.082C412.621 350.082 407.908 345.369 407.908 339.556V230.529L402.474 233.764L391.59 250.839L396.277 386.923C396.734 400.178 377.296 401.951 375.346 388.833L365.29 321.189L322.724 365.841L311.455 454.723C309.892 467.053 292.001 466.965 290.558 454.621L283.126 391.04C280.394 396.803 277.661 402.652 274.927 408.585ZM266.696 347.663L275.695 327.456L274.861 320.319L264.564 344.52C265.436 345.38 266.167 346.428 266.696 347.663ZM355.811 257.486L357.052 265.834L330.013 308.255L331.304 298.073C339.483 283.772 347.653 270.243 355.811 257.486ZM267.608 517.136L258.425 445.422C257.347 447.894 256.269 450.379 255.191 452.877L248.554 506.406L267.608 517.136ZM303.578 349.464L303.532 349.825L302.837 350.915C303.084 350.431 303.331 349.947 303.578 349.464ZM387.394 218.224L407.162 187.21C397.808 198.174 388.437 210.168 379.049 223.191L387.394 218.224ZM225.908 517.825L225.534 520.842L218.865 513.859L225.908 517.825Z" fill="#00801D"/>
<path d="M428.02 280.426V301.48H385.773V280.426H428.02Z" fill="#00801D"/>
<path d="M427.554 183.811C423.888 179.299 424.574 172.67 429.087 169.004L496.674 114.099C506.73 105.93 519.791 119.615 511.163 129.279L467.764 177.89C477.484 181.496 484.116 187.055 487.289 195.01C492.122 207.125 487.386 221.058 475.038 237.17C451.832 267.45 411.552 279.346 355.453 273.784C349.668 273.211 345.443 268.056 346.017 262.271C346.59 256.486 351.745 252.262 357.53 252.835C407.074 257.747 440.255 247.947 458.329 224.364C466.621 213.545 469.104 206.239 467.736 202.81C466.419 199.51 459.879 196.226 446.766 194.575C442.401 194.026 439.285 191.052 438.086 187.434C434.297 188.304 430.17 187.032 427.554 183.811Z" fill="#00801D"/>
<path fill-rule="evenodd" clip-rule="evenodd" d="M536.354 182.179L532.542 193.678L521.103 202.774H503.281C499.623 202.774 496.226 204.674 494.312 207.792L437.975 299.532C435.361 303.787 436.098 309.294 439.738 312.712L453.836 325.954C457.985 329.85 464.48 329.743 468.498 325.711L492.643 301.482L505.884 323.674C510.456 331.337 521.89 330.192 524.852 321.776L546.331 260.752L559.678 254.526L560.371 265.257C560.994 274.893 573.178 278.676 579.148 271.087L612.567 228.605C614.909 225.627 615.337 222.262 614.485 219.31L629.379 220.783L629.861 223.773C631.816 235.894 649.41 235.427 650.719 223.219L650.753 222.897L659.625 223.775C662.232 224.033 664.71 223.316 666.698 221.923L704.186 237.126C708.907 239.041 714.322 237.3 717.042 232.993L728.625 214.653L717.487 317.144C716.042 330.444 735.55 333.514 738.259 320.413L766.689 182.952L769.975 182.028L748.875 273.283C745.719 286.935 766.177 291.7 769.378 278.059L802.564 136.614L824.601 230.434L808.17 242.886C805.544 244.876 804.001 247.98 804.001 251.275V311.354C804.001 315.216 806.116 318.767 809.511 320.608C837.505 335.783 859.894 338.59 876.016 326.77C880.704 323.333 881.718 316.746 878.281 312.058C874.844 307.369 868.257 306.355 863.568 309.792C856.306 315.117 843.635 314.074 825.053 304.95V256.505L842.771 243.079C846.087 240.565 847.612 236.334 846.66 232.283L812.805 88.1508C810.262 77.3241 794.851 77.326 792.31 88.1534L775.801 158.519L771.492 159.731L775.864 138.595C777.955 128.483 766.297 122.478 759.219 127.98L761.578 106.269C762.951 93.6337 744.91 89.8399 741.078 101.958L728.74 140.973L718.303 102.383C715.573 92.2881 701.386 91.9211 698.137 101.862L679.565 158.69L675.978 159.835L679.233 123.191C680.059 113.896 669.457 108.468 662.448 113.814L664.821 91.6798C665.912 81.502 653.305 75.9129 646.496 83.5558L631.315 100.595L629.425 88.8815C627.661 77.9469 612.377 76.804 609.007 87.3547L589.943 147.032L581.371 156.654L574.492 157.322L573.1 135.784C572.354 124.243 556.243 122.173 552.604 133.152L543.598 160.324L465.636 167.899C459.85 168.461 455.615 173.607 456.177 179.394C456.74 185.18 461.886 189.414 467.672 188.852L536.354 182.179ZM518.963 275.049L512.437 293.591L507.961 286.089L518.963 275.049ZM509.179 223.831L481.688 268.597C482.601 267.586 483.729 266.736 485.049 266.12L509.583 254.674L527.527 236.669C523.384 234.453 520.635 229.635 522.481 224.065L522.559 223.831H509.179ZM558.231 231.975L554.886 233.536C554.508 229.691 551.94 226.563 548.629 225.062L557.165 215.481L558.231 231.975ZM608.627 157.702L603.386 174.109L619.224 157.894L617.573 147.66L608.627 157.702ZM638.683 137.972L637.532 139.15L635.635 127.388L640.39 122.051L638.683 137.972ZM625.7 197.975L622.615 198.959L625.912 199.285L625.7 197.975ZM716.22 175.284L673.546 187.293L673.965 182.574L691.104 177.105C694.327 176.077 696.859 173.563 697.91 170.347L707.198 141.926L716.22 175.284ZM714.476 197.646L684.009 206.22L703.953 214.308L714.476 197.646ZM773.983 164.705L787.09 177.209L769.979 182.024L773.983 164.705ZM717.925 175.192L738.122 175.618L728.749 140.963L717.925 175.192ZM460.788 303.609L460.39 303.236L479.658 271.86C478.541 274.76 478.704 278.136 480.439 281.044L481.501 282.824L460.788 303.609Z" fill="#00801D"/>
</svg>
